# Wavefront OBJ file automatically generated by Tiled2Unity

# Vertices (Count = 50)
v -176 -128 0
v -192 -128 0
v -192 -112 0
v -176 -112 0
v -160 -128 0
v -160 -112 0
v -144 -128 0
v -144 -112 0
v -128 -128 0
v -128 -112 0
v -112 -128 0
v -112 -112 0
v -176 -144 0
v -192 -144 0
v -160 -144 0
v -144 -144 0
v -128 -144 0
v -112 -144 0
v -176 -160 0
v -192 -160 0
v -160 -160 0
v -144 -160 0
v -128 -160 0
v -112 -160 0
v -176 -176 0
v -192 -176 0
v -160 -176 0
v -144 -176 0
v -128 -176 0
v -112 -176 0
v -176 -192 0
v -192 -192 0
v -160 -192 0
v -144 -192 0
v -128 -192 0
v -112 -192 0
v -176 -208 0
v -192 -208 0
v -160 -208 0
v -144 -208 0
v -128 -208 0
v -112 -208 0
v -176 -224 0
v -192 -224 0
v -160 -224 0
v -144 -224 0
v -128 -224 0
v -112 -224 0
v -144 -240 0
v -160 -240 0

# Texture cooridinates (Count = 36)
vt 0.5445436 0.5818712
vt 0.5608283 0.5818712
vt 0.5608283 0.6120452
vt 0.5445436 0.6120452
vt 0.4918576 0.5818712
vt 0.5081424 0.5818712
vt 0.5081424 0.6120452
vt 0.4918576 0.6120452
vt 0.5269816 0.5818712
vt 0.5432664 0.5818712
vt 0.5432664 0.6120452
vt 0.5269816 0.6120452
vt 0.5094196 0.5495517
vt 0.5257044 0.5495517
vt 0.5257044 0.5797259
vt 0.5094196 0.5797259
vt 0.5796675 0.4849129
vt 0.5959523 0.4849129
vt 0.5959523 0.5150871
vt 0.5796675 0.5150871
vt 0.5621055 0.4849129
vt 0.5783903 0.4849129
vt 0.5783903 0.5150871
vt 0.5621055 0.5150871
vt 0.5445436 0.4849129
vt 0.5608283 0.4849129
vt 0.5608283 0.5150871
vt 0.5445436 0.5150871
vt 0.1406179 0.8727456
vt 0.1569027 0.8727456
vt 0.1569027 0.9029198
vt 0.1406179 0.9029198
vt 0.4742956 0.5172323
vt 0.4905804 0.5172323
vt 0.4905804 0.5474064
vt 0.4742956 0.5474064

# Normal
vn 0 0 -1

# Groups (Count = 2)

g mesh_0001
f 1/1/1 2/2/1 3/3/1 4/4/1
f 5/5/1 1/6/1 4/7/1 6/8/1
f 7/5/1 5/6/1 6/7/1 8/8/1
f 9/5/1 7/6/1 8/7/1 10/8/1
f 11/9/1 9/10/1 10/11/1 12/12/1
f 13/13/1 14/14/1 2/15/1 1/16/1
f 15/17/1 13/18/1 1/19/1 5/20/1
f 16/21/1 15/22/1 5/23/1 7/24/1
f 17/25/1 16/26/1 7/27/1 9/28/1
f 18/13/1 17/14/1 9/15/1 11/16/1
f 19/13/1 20/14/1 14/15/1 13/16/1
f 21/17/1 19/18/1 13/19/1 15/20/1
f 22/21/1 21/22/1 15/23/1 16/24/1
f 23/25/1 22/26/1 16/27/1 17/28/1
f 24/13/1 23/14/1 17/15/1 18/16/1
f 25/13/1 26/14/1 20/15/1 19/16/1
f 27/29/1 25/30/1 19/31/1 21/32/1
f 28/29/1 27/30/1 21/31/1 22/32/1
f 29/29/1 28/30/1 22/31/1 23/32/1
f 30/13/1 29/14/1 23/15/1 24/16/1
f 31/33/1 32/34/1 26/35/1 25/36/1
f 33/29/1 31/30/1 25/31/1 27/32/1
f 34/29/1 33/30/1 27/31/1 28/32/1
f 35/29/1 34/30/1 28/31/1 29/32/1
f 36/33/1 35/34/1 29/35/1 30/36/1
f 37/25/1 38/26/1 32/27/1 31/28/1
f 39/29/1 37/30/1 31/31/1 33/32/1
f 40/29/1 39/30/1 33/31/1 34/32/1
f 41/29/1 40/30/1 34/31/1 35/32/1
f 42/25/1 41/26/1 35/27/1 36/28/1
f 43/25/1 44/26/1 38/27/1 37/28/1
f 45/29/1 43/30/1 37/31/1 39/32/1
f 46/29/1 45/30/1 39/31/1 40/32/1
f 47/29/1 46/30/1 40/31/1 41/32/1
f 48/25/1 47/26/1 41/27/1 42/28/1
f 49/29/1 50/30/1 45/31/1 46/32/1

