# Tiled2Unity generated file. Do not modify by hand.
# Wavefront file for 'Dungeon_mesh_0004.obj'

# Vertices (Count = 376)
v -512 -240 0
v -528 -240 0
v -528 -224 0
v -512 -224 0
v -496 -240 0
v -512 -240 0
v -512 -224 0
v -496 -224 0
v -480 -240 0
v -496 -240 0
v -496 -224 0
v -480 -224 0
v -464 -240 0
v -480 -240 0
v -480 -224 0
v -464 -224 0
v -448 -240 0
v -464 -240 0
v -464 -224 0
v -448 -224 0
v -432 -240 0
v -448 -240 0
v -448 -224 0
v -432 -224 0
v -416 -240 0
v -432 -240 0
v -432 -224 0
v -416 -224 0
v -400 -240 0
v -416 -240 0
v -416 -224 0
v -400 -224 0
v -384 -240 0
v -400 -240 0
v -400 -224 0
v -384 -224 0
v -368 -240 0
v -384 -240 0
v -384 -224 0
v -368 -224 0
v -352 -240 0
v -368 -240 0
v -368 -224 0
v -352 -224 0
v -336 -240 0
v -352 -240 0
v -352 -224 0
v -336 -224 0
v -320 -240 0
v -336 -240 0
v -336 -224 0
v -320 -224 0
v -304 -240 0
v -320 -240 0
v -320 -224 0
v -304 -224 0
v -288 -240 0
v -304 -240 0
v -304 -224 0
v -288 -224 0
v -272 -240 0
v -288 -240 0
v -288 -224 0
v -272 -224 0
v -256 -240 0
v -272 -240 0
v -272 -224 0
v -256 -224 0
v -512 -256 0
v -528 -256 0
v -528 -240 0
v -512 -240 0
v -496 -256 0
v -512 -256 0
v -512 -240 0
v -496 -240 0
v -480 -256 0
v -496 -256 0
v -496 -240 0
v -480 -240 0
v -464 -256 0
v -480 -256 0
v -480 -240 0
v -464 -240 0
v -448 -256 0
v -464 -256 0
v -464 -240 0
v -448 -240 0
v -432 -256 0
v -448 -256 0
v -448 -240 0
v -432 -240 0
v -416 -256 0
v -432 -256 0
v -432 -240 0
v -416 -240 0
v -400 -256 0
v -416 -256 0
v -416 -240 0
v -400 -240 0
v -384 -256 0
v -400 -256 0
v -400 -240 0
v -384 -240 0
v -368 -256 0
v -384 -256 0
v -384 -240 0
v -368 -240 0
v -352 -256 0
v -368 -256 0
v -368 -240 0
v -352 -240 0
v -336 -256 0
v -352 -256 0
v -352 -240 0
v -336 -240 0
v -320 -256 0
v -336 -256 0
v -336 -240 0
v -320 -240 0
v -304 -256 0
v -320 -256 0
v -320 -240 0
v -304 -240 0
v -288 -256 0
v -304 -256 0
v -304 -240 0
v -288 -240 0
v -272 -256 0
v -288 -256 0
v -288 -240 0
v -272 -240 0
v -256 -256 0
v -272 -256 0
v -272 -240 0
v -256 -240 0
v -512 -272 0
v -528 -272 0
v -528 -256 0
v -512 -256 0
v -496 -272 0
v -512 -272 0
v -512 -256 0
v -496 -256 0
v -480 -272 0
v -496 -272 0
v -496 -256 0
v -480 -256 0
v -464 -272 0
v -480 -272 0
v -480 -256 0
v -464 -256 0
v -448 -272 0
v -464 -272 0
v -464 -256 0
v -448 -256 0
v -432 -272 0
v -448 -272 0
v -448 -256 0
v -432 -256 0
v -416 -272 0
v -432 -272 0
v -432 -256 0
v -416 -256 0
v -400 -272 0
v -416 -272 0
v -416 -256 0
v -400 -256 0
v -384 -272 0
v -400 -272 0
v -400 -256 0
v -384 -256 0
v -368 -272 0
v -384 -272 0
v -384 -256 0
v -368 -256 0
v -352 -272 0
v -368 -272 0
v -368 -256 0
v -352 -256 0
v -336 -272 0
v -352 -272 0
v -352 -256 0
v -336 -256 0
v -320 -272 0
v -336 -272 0
v -336 -256 0
v -320 -256 0
v -304 -272 0
v -320 -272 0
v -320 -256 0
v -304 -256 0
v -288 -272 0
v -304 -272 0
v -304 -256 0
v -288 -256 0
v -272 -272 0
v -288 -272 0
v -288 -256 0
v -272 -256 0
v -256 -272 0
v -272 -272 0
v -272 -256 0
v -256 -256 0
v -512 -288 0
v -528 -288 0
v -528 -272 0
v -512 -272 0
v -496 -288 0
v -512 -288 0
v -512 -272 0
v -496 -272 0
v -480 -288 0
v -496 -288 0
v -496 -272 0
v -480 -272 0
v -464 -288 0
v -480 -288 0
v -480 -272 0
v -464 -272 0
v -448 -288 0
v -464 -288 0
v -464 -272 0
v -448 -272 0
v -432 -288 0
v -448 -288 0
v -448 -272 0
v -432 -272 0
v -416 -288 0
v -432 -288 0
v -432 -272 0
v -416 -272 0
v -400 -288 0
v -416 -288 0
v -416 -272 0
v -400 -272 0
v -384 -288 0
v -400 -288 0
v -400 -272 0
v -384 -272 0
v -368 -288 0
v -384 -288 0
v -384 -272 0
v -368 -272 0
v -352 -288 0
v -368 -288 0
v -368 -272 0
v -352 -272 0
v -336 -288 0
v -352 -288 0
v -352 -272 0
v -336 -272 0
v -320 -288 0
v -336 -288 0
v -336 -272 0
v -320 -272 0
v -304 -288 0
v -320 -288 0
v -320 -272 0
v -304 -272 0
v -288 -288 0
v -304 -288 0
v -304 -272 0
v -288 -272 0
v -272 -288 0
v -288 -288 0
v -288 -272 0
v -272 -272 0
v -256 -288 0
v -272 -288 0
v -272 -272 0
v -256 -272 0
v -512 -304 0
v -528 -304 0
v -528 -288 0
v -512 -288 0
v -256 -304 0
v -272 -304 0
v -272 -288 0
v -256 -288 0
v -512 -320 0
v -528 -320 0
v -528 -304 0
v -512 -304 0
v -256 -320 0
v -272 -320 0
v -272 -304 0
v -256 -304 0
v -512 -336 0
v -528 -336 0
v -528 -320 0
v -512 -320 0
v -256 -336 0
v -272 -336 0
v -272 -320 0
v -256 -320 0
v -512 -352 0
v -528 -352 0
v -528 -336 0
v -512 -336 0
v -256 -352 0
v -272 -352 0
v -272 -336 0
v -256 -336 0
v -512 -368 0
v -528 -368 0
v -528 -352 0
v -512 -352 0
v -256 -368 0
v -272 -368 0
v -272 -352 0
v -256 -352 0
v -512 -384 0
v -528 -384 0
v -528 -368 0
v -512 -368 0
v -256 -384 0
v -272 -384 0
v -272 -368 0
v -256 -368 0
v -512 -400 0
v -528 -400 0
v -528 -384 0
v -512 -384 0
v -256 -400 0
v -272 -400 0
v -272 -384 0
v -256 -384 0
v -512 -416 0
v -528 -416 0
v -528 -400 0
v -512 -400 0
v -256 -416 0
v -272 -416 0
v -272 -400 0
v -256 -400 0
v -512 -432 0
v -528 -432 0
v -528 -416 0
v -512 -416 0
v -256 -432 0
v -272 -432 0
v -272 -416 0
v -256 -416 0
v -512 -448 0
v -528 -448 0
v -528 -432 0
v -512 -432 0
v -256 -448 0
v -272 -448 0
v -272 -432 0
v -256 -432 0
v -512 -464 0
v -528 -464 0
v -528 -448 0
v -512 -448 0
v -256 -464 0
v -272 -464 0
v -272 -448 0
v -256 -448 0
v -512 -480 0
v -528 -480 0
v -528 -464 0
v -512 -464 0
v -256 -480 0
v -272 -480 0
v -272 -464 0
v -256 -464 0
v -512 -496 0
v -528 -496 0
v -528 -480 0
v -512 -480 0
v -256 -496 0
v -272 -496 0
v -272 -480 0
v -256 -480 0

# Texture cooridinates (Count = 32)
vt 0.5444215 0.5817491
vt 0.5609504 0.5817491
vt 0.5609504 0.6121673
vt 0.5444215 0.6121673
vt 0.4917355 0.5817491
vt 0.5082645 0.5817491
vt 0.5082645 0.6121673
vt 0.4917355 0.6121673
vt 0.5795454 0.5494297
vt 0.5960744 0.5494297
vt 0.5960744 0.5798479
vt 0.5795454 0.5798479
vt 0.5268595 0.5817491
vt 0.5433884 0.5817491
vt 0.5433884 0.6121673
vt 0.5268595 0.6121673
vt 0.5092975 0.5494297
vt 0.5258265 0.5494297
vt 0.5258265 0.5798479
vt 0.5092975 0.5798479
vt 0.5795454 0.4847909
vt 0.5960744 0.4847909
vt 0.5960744 0.5152091
vt 0.5795454 0.5152091
vt 0.5619835 0.4847909
vt 0.5785124 0.4847909
vt 0.5785124 0.5152091
vt 0.5619835 0.5152091
vt 0.5444215 0.4847909
vt 0.5609504 0.4847909
vt 0.5609504 0.5152091
vt 0.5444215 0.5152091

# Normal
vn 0 0 -1

# Mesh description
g Dungeon_mesh_0004

# Faces
f 1/1/1 2/2/1 3/3/1 4/4/1
f 5/5/1 6/6/1 7/7/1 8/8/1
f 9/5/1 10/6/1 11/7/1 12/8/1
f 13/5/1 14/6/1 15/7/1 16/8/1
f 17/5/1 18/6/1 19/7/1 20/8/1
f 21/5/1 22/6/1 23/7/1 24/8/1
f 25/5/1 26/6/1 27/7/1 28/8/1
f 29/5/1 30/6/1 31/7/1 32/8/1
f 33/5/1 34/6/1 35/7/1 36/8/1
f 37/5/1 38/6/1 39/7/1 40/8/1
f 41/9/1 42/10/1 43/11/1 44/12/1
f 45/5/1 46/6/1 47/7/1 48/8/1
f 49/5/1 50/6/1 51/7/1 52/8/1
f 53/5/1 54/6/1 55/7/1 56/8/1
f 57/5/1 58/6/1 59/7/1 60/8/1
f 61/5/1 62/6/1 63/7/1 64/8/1
f 65/13/1 66/14/1 67/15/1 68/16/1
f 69/17/1 70/18/1 71/19/1 72/20/1
f 73/21/1 74/22/1 75/23/1 76/24/1
f 77/25/1 78/26/1 79/27/1 80/28/1
f 81/25/1 82/26/1 83/27/1 84/28/1
f 85/25/1 86/26/1 87/27/1 88/28/1
f 89/25/1 90/26/1 91/27/1 92/28/1
f 93/25/1 94/26/1 95/27/1 96/28/1
f 97/25/1 98/26/1 99/27/1 100/28/1
f 101/25/1 102/26/1 103/27/1 104/28/1
f 105/29/1 106/30/1 107/31/1 108/32/1
f 109/25/1 110/26/1 111/27/1 112/28/1
f 113/21/1 114/22/1 115/23/1 116/24/1
f 117/25/1 118/26/1 119/27/1 120/28/1
f 121/25/1 122/26/1 123/27/1 124/28/1
f 125/25/1 126/26/1 127/27/1 128/28/1
f 129/29/1 130/30/1 131/31/1 132/32/1
f 133/17/1 134/18/1 135/19/1 136/20/1
f 137/17/1 138/18/1 139/19/1 140/20/1
f 141/21/1 142/22/1 143/23/1 144/24/1
f 145/25/1 146/26/1 147/27/1 148/28/1
f 149/25/1 150/26/1 151/27/1 152/28/1
f 153/25/1 154/26/1 155/27/1 156/28/1
f 157/25/1 158/26/1 159/27/1 160/28/1
f 161/25/1 162/26/1 163/27/1 164/28/1
f 165/25/1 166/26/1 167/27/1 168/28/1
f 169/25/1 170/26/1 171/27/1 172/28/1
f 173/29/1 174/30/1 175/31/1 176/32/1
f 177/25/1 178/26/1 179/27/1 180/28/1
f 181/21/1 182/22/1 183/23/1 184/24/1
f 185/25/1 186/26/1 187/27/1 188/28/1
f 189/25/1 190/26/1 191/27/1 192/28/1
f 193/25/1 194/26/1 195/27/1 196/28/1
f 197/29/1 198/30/1 199/31/1 200/32/1
f 201/17/1 202/18/1 203/19/1 204/20/1
f 205/17/1 206/18/1 207/19/1 208/20/1
f 209/21/1 210/22/1 211/23/1 212/24/1
f 213/25/1 214/26/1 215/27/1 216/28/1
f 217/25/1 218/26/1 219/27/1 220/28/1
f 221/25/1 222/26/1 223/27/1 224/28/1
f 225/25/1 226/26/1 227/27/1 228/28/1
f 229/25/1 230/26/1 231/27/1 232/28/1
f 233/25/1 234/26/1 235/27/1 236/28/1
f 237/25/1 238/26/1 239/27/1 240/28/1
f 241/29/1 242/30/1 243/31/1 244/32/1
f 245/25/1 246/26/1 247/27/1 248/28/1
f 249/21/1 250/22/1 251/23/1 252/24/1
f 253/25/1 254/26/1 255/27/1 256/28/1
f 257/25/1 258/26/1 259/27/1 260/28/1
f 261/25/1 262/26/1 263/27/1 264/28/1
f 265/29/1 266/30/1 267/31/1 268/32/1
f 269/17/1 270/18/1 271/19/1 272/20/1
f 273/17/1 274/18/1 275/19/1 276/20/1
f 277/17/1 278/18/1 279/19/1 280/20/1
f 281/17/1 282/18/1 283/19/1 284/20/1
f 285/17/1 286/18/1 287/19/1 288/20/1
f 289/17/1 290/18/1 291/19/1 292/20/1
f 293/17/1 294/18/1 295/19/1 296/20/1
f 297/17/1 298/18/1 299/19/1 300/20/1
f 301/17/1 302/18/1 303/19/1 304/20/1
f 305/17/1 306/18/1 307/19/1 308/20/1
f 309/17/1 310/18/1 311/19/1 312/20/1
f 313/17/1 314/18/1 315/19/1 316/20/1
f 317/17/1 318/18/1 319/19/1 320/20/1
f 321/17/1 322/18/1 323/19/1 324/20/1
f 325/17/1 326/18/1 327/19/1 328/20/1
f 329/17/1 330/18/1 331/19/1 332/20/1
f 333/17/1 334/18/1 335/19/1 336/20/1
f 337/17/1 338/18/1 339/19/1 340/20/1
f 341/17/1 342/18/1 343/19/1 344/20/1
f 345/17/1 346/18/1 347/19/1 348/20/1
f 349/17/1 350/18/1 351/19/1 352/20/1
f 353/17/1 354/18/1 355/19/1 356/20/1
f 357/17/1 358/18/1 359/19/1 360/20/1
f 361/21/1 362/22/1 363/23/1 364/24/1
f 365/29/1 366/30/1 367/31/1 368/32/1
f 369/21/1 370/22/1 371/23/1 372/24/1
f 373/29/1 374/30/1 375/31/1 376/32/1

