# Tiled2Unity generated file. Do not modify by hand.
# Wavefront file for 'Blue_Dungeon_mesh_0004.obj'

# Vertices (Count = 884)
v -384 -16 0
v -400 -16 0
v -400 0 0
v -384 0 0
v -368 -16 0
v -384 -16 0
v -384 0 0
v -368 0 0
v -384 -32 0
v -400 -32 0
v -400 -16 0
v -384 -16 0
v -368 -32 0
v -384 -32 0
v -384 -16 0
v -368 -16 0
v -384 -48 0
v -400 -48 0
v -400 -32 0
v -384 -32 0
v -368 -48 0
v -384 -48 0
v -384 -32 0
v -368 -32 0
v -256 -48 0
v -272 -48 0
v -272 -32 0
v -256 -32 0
v -176 -48 0
v -192 -48 0
v -192 -32 0
v -176 -32 0
v -112 -48 0
v -128 -48 0
v -128 -32 0
v -112 -32 0
v -384 -64 0
v -400 -64 0
v -400 -48 0
v -384 -48 0
v -368 -64 0
v -384 -64 0
v -384 -48 0
v -368 -48 0
v -256 -64 0
v -272 -64 0
v -272 -48 0
v -256 -48 0
v -176 -64 0
v -192 -64 0
v -192 -48 0
v -176 -48 0
v -112 -64 0
v -128 -64 0
v -128 -48 0
v -112 -48 0
v -384 -80 0
v -400 -80 0
v -400 -64 0
v -384 -64 0
v -368 -80 0
v -384 -80 0
v -384 -64 0
v -368 -64 0
v -176 -80 0
v -192 -80 0
v -192 -64 0
v -176 -64 0
v -144 -80 0
v -160 -80 0
v -160 -64 0
v -144 -64 0
v -112 -80 0
v -128 -80 0
v -128 -64 0
v -112 -64 0
v -384 -96 0
v -400 -96 0
v -400 -80 0
v -384 -80 0
v -368 -96 0
v -384 -96 0
v -384 -80 0
v -368 -80 0
v -384 -112 0
v -400 -112 0
v -400 -96 0
v -384 -96 0
v -368 -112 0
v -384 -112 0
v -384 -96 0
v -368 -96 0
v -384 -128 0
v -400 -128 0
v -400 -112 0
v -384 -112 0
v -368 -128 0
v -384 -128 0
v -384 -112 0
v -368 -112 0
v -384 -144 0
v -400 -144 0
v -400 -128 0
v -384 -128 0
v -368 -144 0
v -384 -144 0
v -384 -128 0
v -368 -128 0
v -384 -160 0
v -400 -160 0
v -400 -144 0
v -384 -144 0
v -368 -160 0
v -384 -160 0
v -384 -144 0
v -368 -144 0
v -384 -176 0
v -400 -176 0
v -400 -160 0
v -384 -160 0
v -368 -176 0
v -384 -176 0
v -384 -160 0
v -368 -160 0
v -384 -192 0
v -400 -192 0
v -400 -176 0
v -384 -176 0
v -368 -192 0
v -384 -192 0
v -384 -176 0
v -368 -176 0
v -384 -208 0
v -400 -208 0
v -400 -192 0
v -384 -192 0
v -368 -208 0
v -384 -208 0
v -384 -192 0
v -368 -192 0
v -384 -224 0
v -400 -224 0
v -400 -208 0
v -384 -208 0
v -368 -224 0
v -384 -224 0
v -384 -208 0
v -368 -208 0
v -384 -240 0
v -400 -240 0
v -400 -224 0
v -384 -224 0
v -368 -240 0
v -384 -240 0
v -384 -224 0
v -368 -224 0
v -384 -256 0
v -400 -256 0
v -400 -240 0
v -384 -240 0
v -368 -256 0
v -384 -256 0
v -384 -240 0
v -368 -240 0
v -304 -256 0
v -320 -256 0
v -320 -240 0
v -304 -240 0
v -288 -256 0
v -304 -256 0
v -304 -240 0
v -288 -240 0
v -272 -256 0
v -288 -256 0
v -288 -240 0
v -272 -240 0
v -256 -256 0
v -272 -256 0
v -272 -240 0
v -256 -240 0
v -240 -256 0
v -256 -256 0
v -256 -240 0
v -240 -240 0
v -224 -256 0
v -240 -256 0
v -240 -240 0
v -224 -240 0
v -208 -256 0
v -224 -256 0
v -224 -240 0
v -208 -240 0
v -192 -256 0
v -208 -256 0
v -208 -240 0
v -192 -240 0
v -176 -256 0
v -192 -256 0
v -192 -240 0
v -176 -240 0
v -160 -256 0
v -176 -256 0
v -176 -240 0
v -160 -240 0
v -144 -256 0
v -160 -256 0
v -160 -240 0
v -144 -240 0
v -128 -256 0
v -144 -256 0
v -144 -240 0
v -128 -240 0
v -112 -256 0
v -128 -256 0
v -128 -240 0
v -112 -240 0
v -96 -256 0
v -112 -256 0
v -112 -240 0
v -96 -240 0
v -80 -256 0
v -96 -256 0
v -96 -240 0
v -80 -240 0
v -64 -256 0
v -80 -256 0
v -80 -240 0
v -64 -240 0
v -48 -256 0
v -64 -256 0
v -64 -240 0
v -48 -240 0
v -384 -272 0
v -400 -272 0
v -400 -256 0
v -384 -256 0
v -368 -272 0
v -384 -272 0
v -384 -256 0
v -368 -256 0
v -288 -272 0
v -304 -272 0
v -304 -256 0
v -288 -256 0
v -272 -272 0
v -288 -272 0
v -288 -256 0
v -272 -256 0
v -256 -272 0
v -272 -272 0
v -272 -256 0
v -256 -256 0
v -240 -272 0
v -256 -272 0
v -256 -256 0
v -240 -256 0
v -224 -272 0
v -240 -272 0
v -240 -256 0
v -224 -256 0
v -208 -272 0
v -224 -272 0
v -224 -256 0
v -208 -256 0
v -192 -272 0
v -208 -272 0
v -208 -256 0
v -192 -256 0
v -176 -272 0
v -192 -272 0
v -192 -256 0
v -176 -256 0
v -160 -272 0
v -176 -272 0
v -176 -256 0
v -160 -256 0
v -144 -272 0
v -160 -272 0
v -160 -256 0
v -144 -256 0
v -128 -272 0
v -144 -272 0
v -144 -256 0
v -128 -256 0
v -112 -272 0
v -128 -272 0
v -128 -256 0
v -112 -256 0
v -96 -272 0
v -112 -272 0
v -112 -256 0
v -96 -256 0
v -80 -272 0
v -96 -272 0
v -96 -256 0
v -80 -256 0
v -64 -272 0
v -80 -272 0
v -80 -256 0
v -64 -256 0
v -384 -288 0
v -400 -288 0
v -400 -272 0
v -384 -272 0
v -368 -288 0
v -384 -288 0
v -384 -272 0
v -368 -272 0
v -288 -288 0
v -304 -288 0
v -304 -272 0
v -288 -272 0
v -272 -288 0
v -288 -288 0
v -288 -272 0
v -272 -272 0
v -256 -288 0
v -272 -288 0
v -272 -272 0
v -256 -272 0
v -240 -288 0
v -256 -288 0
v -256 -272 0
v -240 -272 0
v -224 -288 0
v -240 -288 0
v -240 -272 0
v -224 -272 0
v -208 -288 0
v -224 -288 0
v -224 -272 0
v -208 -272 0
v -192 -288 0
v -208 -288 0
v -208 -272 0
v -192 -272 0
v -176 -288 0
v -192 -288 0
v -192 -272 0
v -176 -272 0
v -160 -288 0
v -176 -288 0
v -176 -272 0
v -160 -272 0
v -144 -288 0
v -160 -288 0
v -160 -272 0
v -144 -272 0
v -128 -288 0
v -144 -288 0
v -144 -272 0
v -128 -272 0
v -112 -288 0
v -128 -288 0
v -128 -272 0
v -112 -272 0
v -96 -288 0
v -112 -288 0
v -112 -272 0
v -96 -272 0
v -80 -288 0
v -96 -288 0
v -96 -272 0
v -80 -272 0
v -64 -288 0
v -80 -288 0
v -80 -272 0
v -64 -272 0
v -384 -304 0
v -400 -304 0
v -400 -288 0
v -384 -288 0
v -368 -304 0
v -384 -304 0
v -384 -288 0
v -368 -288 0
v -384 -320 0
v -400 -320 0
v -400 -304 0
v -384 -304 0
v -368 -320 0
v -384 -320 0
v -384 -304 0
v -368 -304 0
v -384 -336 0
v -400 -336 0
v -400 -320 0
v -384 -320 0
v -368 -336 0
v -384 -336 0
v -384 -320 0
v -368 -320 0
v -352 -336 0
v -368 -336 0
v -368 -320 0
v -352 -320 0
v -336 -336 0
v -352 -336 0
v -352 -320 0
v -336 -320 0
v -320 -336 0
v -336 -336 0
v -336 -320 0
v -320 -320 0
v -304 -336 0
v -320 -336 0
v -320 -320 0
v -304 -320 0
v -288 -336 0
v -304 -336 0
v -304 -320 0
v -288 -320 0
v -272 -336 0
v -288 -336 0
v -288 -320 0
v -272 -320 0
v -256 -336 0
v -272 -336 0
v -272 -320 0
v -256 -320 0
v -240 -336 0
v -256 -336 0
v -256 -320 0
v -240 -320 0
v -224 -336 0
v -240 -336 0
v -240 -320 0
v -224 -320 0
v -208 -336 0
v -224 -336 0
v -224 -320 0
v -208 -320 0
v -192 -336 0
v -208 -336 0
v -208 -320 0
v -192 -320 0
v -176 -336 0
v -192 -336 0
v -192 -320 0
v -176 -320 0
v -160 -336 0
v -176 -336 0
v -176 -320 0
v -160 -320 0
v -144 -336 0
v -160 -336 0
v -160 -320 0
v -144 -320 0
v -128 -336 0
v -144 -336 0
v -144 -320 0
v -128 -320 0
v -112 -336 0
v -128 -336 0
v -128 -320 0
v -112 -320 0
v -96 -336 0
v -112 -336 0
v -112 -320 0
v -96 -320 0
v -80 -336 0
v -96 -336 0
v -96 -320 0
v -80 -320 0
v -64 -336 0
v -80 -336 0
v -80 -320 0
v -64 -320 0
v -48 -336 0
v -64 -336 0
v -64 -320 0
v -48 -320 0
v -32 -336 0
v -48 -336 0
v -48 -320 0
v -32 -320 0
v -16 -336 0
v -32 -336 0
v -32 -320 0
v -16 -320 0
v 0 -336 0
v -16 -336 0
v -16 -320 0
v 0 -320 0
v -384 -352 0
v -400 -352 0
v -400 -336 0
v -384 -336 0
v -368 -352 0
v -384 -352 0
v -384 -336 0
v -368 -336 0
v -352 -352 0
v -368 -352 0
v -368 -336 0
v -352 -336 0
v -336 -352 0
v -352 -352 0
v -352 -336 0
v -336 -336 0
v -320 -352 0
v -336 -352 0
v -336 -336 0
v -320 -336 0
v -304 -352 0
v -320 -352 0
v -320 -336 0
v -304 -336 0
v -288 -352 0
v -304 -352 0
v -304 -336 0
v -288 -336 0
v -272 -352 0
v -288 -352 0
v -288 -336 0
v -272 -336 0
v -256 -352 0
v -272 -352 0
v -272 -336 0
v -256 -336 0
v -240 -352 0
v -256 -352 0
v -256 -336 0
v -240 -336 0
v -224 -352 0
v -240 -352 0
v -240 -336 0
v -224 -336 0
v -208 -352 0
v -224 -352 0
v -224 -336 0
v -208 -336 0
v -192 -352 0
v -208 -352 0
v -208 -336 0
v -192 -336 0
v -176 -352 0
v -192 -352 0
v -192 -336 0
v -176 -336 0
v -160 -352 0
v -176 -352 0
v -176 -336 0
v -160 -336 0
v -144 -352 0
v -160 -352 0
v -160 -336 0
v -144 -336 0
v -128 -352 0
v -144 -352 0
v -144 -336 0
v -128 -336 0
v -112 -352 0
v -128 -352 0
v -128 -336 0
v -112 -336 0
v -96 -352 0
v -112 -352 0
v -112 -336 0
v -96 -336 0
v -80 -352 0
v -96 -352 0
v -96 -336 0
v -80 -336 0
v -64 -352 0
v -80 -352 0
v -80 -336 0
v -64 -336 0
v -48 -352 0
v -64 -352 0
v -64 -336 0
v -48 -336 0
v -32 -352 0
v -48 -352 0
v -48 -336 0
v -32 -336 0
v -16 -352 0
v -32 -352 0
v -32 -336 0
v -16 -336 0
v 0 -352 0
v -16 -352 0
v -16 -336 0
v 0 -336 0
v -384 -368 0
v -400 -368 0
v -400 -352 0
v -384 -352 0
v -368 -368 0
v -384 -368 0
v -384 -352 0
v -368 -352 0
v -352 -368 0
v -368 -368 0
v -368 -352 0
v -352 -352 0
v -336 -368 0
v -352 -368 0
v -352 -352 0
v -336 -352 0
v -320 -368 0
v -336 -368 0
v -336 -352 0
v -320 -352 0
v -304 -368 0
v -320 -368 0
v -320 -352 0
v -304 -352 0
v -288 -368 0
v -304 -368 0
v -304 -352 0
v -288 -352 0
v -272 -368 0
v -288 -368 0
v -288 -352 0
v -272 -352 0
v -256 -368 0
v -272 -368 0
v -272 -352 0
v -256 -352 0
v -240 -368 0
v -256 -368 0
v -256 -352 0
v -240 -352 0
v -224 -368 0
v -240 -368 0
v -240 -352 0
v -224 -352 0
v -208 -368 0
v -224 -368 0
v -224 -352 0
v -208 -352 0
v -192 -368 0
v -208 -368 0
v -208 -352 0
v -192 -352 0
v -176 -368 0
v -192 -368 0
v -192 -352 0
v -176 -352 0
v -160 -368 0
v -176 -368 0
v -176 -352 0
v -160 -352 0
v -144 -368 0
v -160 -368 0
v -160 -352 0
v -144 -352 0
v -128 -368 0
v -144 -368 0
v -144 -352 0
v -128 -352 0
v -112 -368 0
v -128 -368 0
v -128 -352 0
v -112 -352 0
v -96 -368 0
v -112 -368 0
v -112 -352 0
v -96 -352 0
v -80 -368 0
v -96 -368 0
v -96 -352 0
v -80 -352 0
v -64 -368 0
v -80 -368 0
v -80 -352 0
v -64 -352 0
v -48 -368 0
v -64 -368 0
v -64 -352 0
v -48 -352 0
v -32 -368 0
v -48 -368 0
v -48 -352 0
v -32 -352 0
v -16 -368 0
v -32 -368 0
v -32 -352 0
v -16 -352 0
v 0 -368 0
v -16 -368 0
v -16 -352 0
v 0 -352 0
v -384 -384 0
v -400 -384 0
v -400 -368 0
v -384 -368 0
v -368 -384 0
v -384 -384 0
v -384 -368 0
v -368 -368 0
v -352 -384 0
v -368 -384 0
v -368 -368 0
v -352 -368 0
v -336 -384 0
v -352 -384 0
v -352 -368 0
v -336 -368 0
v -320 -384 0
v -336 -384 0
v -336 -368 0
v -320 -368 0
v -304 -384 0
v -320 -384 0
v -320 -368 0
v -304 -368 0
v -288 -384 0
v -304 -384 0
v -304 -368 0
v -288 -368 0
v -272 -384 0
v -288 -384 0
v -288 -368 0
v -272 -368 0
v -256 -384 0
v -272 -384 0
v -272 -368 0
v -256 -368 0
v -240 -384 0
v -256 -384 0
v -256 -368 0
v -240 -368 0
v -224 -384 0
v -240 -384 0
v -240 -368 0
v -224 -368 0
v -208 -384 0
v -224 -384 0
v -224 -368 0
v -208 -368 0
v -192 -384 0
v -208 -384 0
v -208 -368 0
v -192 -368 0
v -176 -384 0
v -192 -384 0
v -192 -368 0
v -176 -368 0
v -160 -384 0
v -176 -384 0
v -176 -368 0
v -160 -368 0
v -144 -384 0
v -160 -384 0
v -160 -368 0
v -144 -368 0
v -128 -384 0
v -144 -384 0
v -144 -368 0
v -128 -368 0
v -112 -384 0
v -128 -384 0
v -128 -368 0
v -112 -368 0
v -96 -384 0
v -112 -384 0
v -112 -368 0
v -96 -368 0
v -80 -384 0
v -96 -384 0
v -96 -368 0
v -80 -368 0
v -64 -384 0
v -80 -384 0
v -80 -368 0
v -64 -368 0
v -48 -384 0
v -64 -384 0
v -64 -368 0
v -48 -368 0
v -32 -384 0
v -48 -384 0
v -48 -368 0
v -32 -368 0
v -16 -384 0
v -32 -384 0
v -32 -368 0
v -16 -368 0
v 0 -384 0
v -16 -384 0
v -16 -368 0
v 0 -368 0
v -384 -400 0
v -400 -400 0
v -400 -384 0
v -384 -384 0
v -368 -400 0
v -384 -400 0
v -384 -384 0
v -368 -384 0
v -352 -400 0
v -368 -400 0
v -368 -384 0
v -352 -384 0
v -336 -400 0
v -352 -400 0
v -352 -384 0
v -336 -384 0
v -320 -400 0
v -336 -400 0
v -336 -384 0
v -320 -384 0
v -304 -400 0
v -320 -400 0
v -320 -384 0
v -304 -384 0
v -288 -400 0
v -304 -400 0
v -304 -384 0
v -288 -384 0
v -272 -400 0
v -288 -400 0
v -288 -384 0
v -272 -384 0
v -256 -400 0
v -272 -400 0
v -272 -384 0
v -256 -384 0
v -240 -400 0
v -256 -400 0
v -256 -384 0
v -240 -384 0
v -224 -400 0
v -240 -400 0
v -240 -384 0
v -224 -384 0
v -208 -400 0
v -224 -400 0
v -224 -384 0
v -208 -384 0
v -192 -400 0
v -208 -400 0
v -208 -384 0
v -192 -384 0
v -176 -400 0
v -192 -400 0
v -192 -384 0
v -176 -384 0
v -160 -400 0
v -176 -400 0
v -176 -384 0
v -160 -384 0
v -144 -400 0
v -160 -400 0
v -160 -384 0
v -144 -384 0
v -128 -400 0
v -144 -400 0
v -144 -384 0
v -128 -384 0
v -112 -400 0
v -128 -400 0
v -128 -384 0
v -112 -384 0
v -96 -400 0
v -112 -400 0
v -112 -384 0
v -96 -384 0
v -80 -400 0
v -96 -400 0
v -96 -384 0
v -80 -384 0
v -64 -400 0
v -80 -400 0
v -80 -384 0
v -64 -384 0
v -48 -400 0
v -64 -400 0
v -64 -384 0
v -48 -384 0
v -32 -400 0
v -48 -400 0
v -48 -384 0
v -32 -384 0
v -16 -400 0
v -32 -400 0
v -32 -384 0
v -16 -384 0
v 0 -400 0
v -16 -400 0
v -16 -384 0
v 0 -384 0

# Texture cooridinates (Count = 60)
vt 0.7024794 0.3231939
vt 0.7190083 0.3231939
vt 0.7190083 0.3536122
vt 0.7024794 0.3536122
vt 0.7024794 0.3555133
vt 0.7190083 0.3555133
vt 0.7190083 0.3859316
vt 0.7024794 0.3859316
vt 0.7024794 0.3878327
vt 0.7190083 0.3878327
vt 0.7190083 0.418251
vt 0.7024794 0.418251
vt 0.1580579 0.9695817
vt 0.1745868 0.9695817
vt 0.1745868 1
vt 0.1580579 1
vt 0.8254132 0.904943
vt 0.8419421 0.904943
vt 0.8419421 0.9353612
vt 0.8254132 0.9353612
vt 0.8780992 0.8726236
vt 0.8946281 0.8726236
vt 0.8946281 0.9030418
vt 0.8780992 0.9030418
vt 0.8254132 0.8726236
vt 0.8419421 0.8726236
vt 0.8419421 0.9030418
vt 0.8254132 0.9030418
vt 0.8780992 0.8403042
vt 0.8946281 0.8403042
vt 0.8946281 0.8707224
vt 0.8780992 0.8707224
vt 0.1580579 0.9372624
vt 0.1745868 0.9372624
vt 0.1745868 0.9676806
vt 0.1580579 0.9676806
vt 0.8780992 0.8079848
vt 0.8946281 0.8079848
vt 0.8946281 0.838403
vt 0.8780992 0.838403
vt 0.6322314 0.8726236
vt 0.6487603 0.8726236
vt 0.6487603 0.9030418
vt 0.6322314 0.9030418
vt 0.5444215 0.5494297
vt 0.5609504 0.5494297
vt 0.5609504 0.5798479
vt 0.5444215 0.5798479
vt 0.4917355 0.5817491
vt 0.5082645 0.5817491
vt 0.5082645 0.6121673
vt 0.4917355 0.6121673
vt 0.5268595 0.5494297
vt 0.5433884 0.5494297
vt 0.5433884 0.5798479
vt 0.5268595 0.5798479
vt 0.5619835 0.4847909
vt 0.5785124 0.4847909
vt 0.5785124 0.5152091
vt 0.5619835 0.5152091

# Normal
vn 0 0 -1

# Mesh description
g Blue_Dungeon_mesh_0004

# Faces
f 1/1/1 2/2/1 3/3/1 4/4/1
f 5/5/1 6/6/1 7/7/1 8/8/1
f 9/9/1 10/10/1 11/11/1 12/12/1
f 13/13/1 14/14/1 15/15/1 16/16/1
f 17/5/1 18/6/1 19/7/1 20/8/1
f 21/1/1 22/2/1 23/3/1 24/4/1
f 25/17/1 26/18/1 27/19/1 28/20/1
f 29/21/1 30/22/1 31/23/1 32/24/1
f 33/21/1 34/22/1 35/23/1 36/24/1
f 37/5/1 38/6/1 39/7/1 40/8/1
f 41/5/1 42/6/1 43/7/1 44/8/1
f 45/25/1 46/26/1 47/27/1 48/28/1
f 49/29/1 50/30/1 51/31/1 52/32/1
f 53/29/1 54/30/1 55/31/1 56/32/1
f 57/33/1 58/34/1 59/35/1 60/36/1
f 61/13/1 62/14/1 63/15/1 64/16/1
f 65/37/1 66/38/1 67/39/1 68/40/1
f 69/41/1 70/42/1 71/43/1 72/44/1
f 73/37/1 74/38/1 75/39/1 76/40/1
f 77/5/1 78/6/1 79/7/1 80/8/1
f 81/1/1 82/2/1 83/3/1 84/4/1
f 85/13/1 86/14/1 87/15/1 88/16/1
f 89/33/1 90/34/1 91/35/1 92/36/1
f 93/5/1 94/6/1 95/7/1 96/8/1
f 97/5/1 98/6/1 99/7/1 100/8/1
f 101/9/1 102/10/1 103/11/1 104/12/1
f 105/9/1 106/10/1 107/11/1 108/12/1
f 109/33/1 110/34/1 111/35/1 112/36/1
f 113/9/1 114/10/1 115/11/1 116/12/1
f 117/5/1 118/6/1 119/7/1 120/8/1
f 121/13/1 122/14/1 123/15/1 124/16/1
f 125/1/1 126/2/1 127/3/1 128/4/1
f 129/1/1 130/2/1 131/3/1 132/4/1
f 133/13/1 134/14/1 135/15/1 136/16/1
f 137/13/1 138/14/1 139/15/1 140/16/1
f 141/5/1 142/6/1 143/7/1 144/8/1
f 145/33/1 146/34/1 147/35/1 148/36/1
f 149/1/1 150/2/1 151/3/1 152/4/1
f 153/5/1 154/6/1 155/7/1 156/8/1
f 157/5/1 158/6/1 159/7/1 160/8/1
f 161/9/1 162/10/1 163/11/1 164/12/1
f 165/45/1 166/46/1 167/47/1 168/48/1
f 169/49/1 170/50/1 171/51/1 172/52/1
f 173/49/1 174/50/1 175/51/1 176/52/1
f 177/49/1 178/50/1 179/51/1 180/52/1
f 181/49/1 182/50/1 183/51/1 184/52/1
f 185/49/1 186/50/1 187/51/1 188/52/1
f 189/49/1 190/50/1 191/51/1 192/52/1
f 193/49/1 194/50/1 195/51/1 196/52/1
f 197/49/1 198/50/1 199/51/1 200/52/1
f 201/49/1 202/50/1 203/51/1 204/52/1
f 205/49/1 206/50/1 207/51/1 208/52/1
f 209/49/1 210/50/1 211/51/1 212/52/1
f 213/49/1 214/50/1 215/51/1 216/52/1
f 217/49/1 218/50/1 219/51/1 220/52/1
f 221/49/1 222/50/1 223/51/1 224/52/1
f 225/49/1 226/50/1 227/51/1 228/52/1
f 229/53/1 230/54/1 231/55/1 232/56/1
f 233/1/1 234/2/1 235/3/1 236/4/1
f 237/5/1 238/6/1 239/7/1 240/8/1
f 241/57/1 242/58/1 243/59/1 244/60/1
f 245/57/1 246/58/1 247/59/1 248/60/1
f 249/57/1 250/58/1 251/59/1 252/60/1
f 253/57/1 254/58/1 255/59/1 256/60/1
f 257/57/1 258/58/1 259/59/1 260/60/1
f 261/57/1 262/58/1 263/59/1 264/60/1
f 265/57/1 266/58/1 267/59/1 268/60/1
f 269/57/1 270/58/1 271/59/1 272/60/1
f 273/57/1 274/58/1 275/59/1 276/60/1
f 277/57/1 278/58/1 279/59/1 280/60/1
f 281/57/1 282/58/1 283/59/1 284/60/1
f 285/57/1 286/58/1 287/59/1 288/60/1
f 289/57/1 290/58/1 291/59/1 292/60/1
f 293/57/1 294/58/1 295/59/1 296/60/1
f 297/57/1 298/58/1 299/59/1 300/60/1
f 301/13/1 302/14/1 303/15/1 304/16/1
f 305/9/1 306/10/1 307/11/1 308/12/1
f 309/57/1 310/58/1 311/59/1 312/60/1
f 313/57/1 314/58/1 315/59/1 316/60/1
f 317/57/1 318/58/1 319/59/1 320/60/1
f 321/57/1 322/58/1 323/59/1 324/60/1
f 325/57/1 326/58/1 327/59/1 328/60/1
f 329/57/1 330/58/1 331/59/1 332/60/1
f 333/57/1 334/58/1 335/59/1 336/60/1
f 337/57/1 338/58/1 339/59/1 340/60/1
f 341/57/1 342/58/1 343/59/1 344/60/1
f 345/57/1 346/58/1 347/59/1 348/60/1
f 349/57/1 350/58/1 351/59/1 352/60/1
f 353/57/1 354/58/1 355/59/1 356/60/1
f 357/57/1 358/58/1 359/59/1 360/60/1
f 361/57/1 362/58/1 363/59/1 364/60/1
f 365/57/1 366/58/1 367/59/1 368/60/1
f 369/13/1 370/14/1 371/15/1 372/16/1
f 373/5/1 374/6/1 375/7/1 376/8/1
f 377/33/1 378/34/1 379/35/1 380/36/1
f 381/5/1 382/6/1 383/7/1 384/8/1
f 385/1/1 386/2/1 387/3/1 388/4/1
f 389/1/1 390/2/1 391/3/1 392/4/1
f 393/13/1 394/14/1 395/15/1 396/16/1
f 397/33/1 398/34/1 399/35/1 400/36/1
f 401/33/1 402/34/1 403/35/1 404/36/1
f 405/1/1 406/2/1 407/3/1 408/4/1
f 409/33/1 410/34/1 411/35/1 412/36/1
f 413/33/1 414/34/1 415/35/1 416/36/1
f 417/33/1 418/34/1 419/35/1 420/36/1
f 421/33/1 422/34/1 423/35/1 424/36/1
f 425/1/1 426/2/1 427/3/1 428/4/1
f 429/9/1 430/10/1 431/11/1 432/12/1
f 433/33/1 434/34/1 435/35/1 436/36/1
f 437/33/1 438/34/1 439/35/1 440/36/1
f 441/9/1 442/10/1 443/11/1 444/12/1
f 445/9/1 446/10/1 447/11/1 448/12/1
f 449/13/1 450/14/1 451/15/1 452/16/1
f 453/1/1 454/2/1 455/3/1 456/4/1
f 457/1/1 458/2/1 459/3/1 460/4/1
f 461/5/1 462/6/1 463/7/1 464/8/1
f 465/5/1 466/6/1 467/7/1 468/8/1
f 469/33/1 470/34/1 471/35/1 472/36/1
f 473/9/1 474/10/1 475/11/1 476/12/1
f 477/13/1 478/14/1 479/15/1 480/16/1
f 481/9/1 482/10/1 483/11/1 484/12/1
f 485/9/1 486/10/1 487/11/1 488/12/1
f 489/33/1 490/34/1 491/35/1 492/36/1
f 493/1/1 494/2/1 495/3/1 496/4/1
f 497/33/1 498/34/1 499/35/1 500/36/1
f 501/33/1 502/34/1 503/35/1 504/36/1
f 505/5/1 506/6/1 507/7/1 508/8/1
f 509/1/1 510/2/1 511/3/1 512/4/1
f 513/13/1 514/14/1 515/15/1 516/16/1
f 517/1/1 518/2/1 519/3/1 520/4/1
f 521/33/1 522/34/1 523/35/1 524/36/1
f 525/13/1 526/14/1 527/15/1 528/16/1
f 529/33/1 530/34/1 531/35/1 532/36/1
f 533/5/1 534/6/1 535/7/1 536/8/1
f 537/5/1 538/6/1 539/7/1 540/8/1
f 541/5/1 542/6/1 543/7/1 544/8/1
f 545/1/1 546/2/1 547/3/1 548/4/1
f 549/9/1 550/10/1 551/11/1 552/12/1
f 553/13/1 554/14/1 555/15/1 556/16/1
f 557/33/1 558/34/1 559/35/1 560/36/1
f 561/5/1 562/6/1 563/7/1 564/8/1
f 565/33/1 566/34/1 567/35/1 568/36/1
f 569/33/1 570/34/1 571/35/1 572/36/1
f 573/13/1 574/14/1 575/15/1 576/16/1
f 577/33/1 578/34/1 579/35/1 580/36/1
f 581/13/1 582/14/1 583/15/1 584/16/1
f 585/13/1 586/14/1 587/15/1 588/16/1
f 589/1/1 590/2/1 591/3/1 592/4/1
f 593/13/1 594/14/1 595/15/1 596/16/1
f 597/13/1 598/14/1 599/15/1 600/16/1
f 601/33/1 602/34/1 603/35/1 604/36/1
f 605/9/1 606/10/1 607/11/1 608/12/1
f 609/5/1 610/6/1 611/7/1 612/8/1
f 613/9/1 614/10/1 615/11/1 616/12/1
f 617/33/1 618/34/1 619/35/1 620/36/1
f 621/5/1 622/6/1 623/7/1 624/8/1
f 625/13/1 626/14/1 627/15/1 628/16/1
f 629/13/1 630/14/1 631/15/1 632/16/1
f 633/9/1 634/10/1 635/11/1 636/12/1
f 637/9/1 638/10/1 639/11/1 640/12/1
f 641/33/1 642/34/1 643/35/1 644/36/1
f 645/5/1 646/6/1 647/7/1 648/8/1
f 649/5/1 650/6/1 651/7/1 652/8/1
f 653/13/1 654/14/1 655/15/1 656/16/1
f 657/9/1 658/10/1 659/11/1 660/12/1
f 661/9/1 662/10/1 663/11/1 664/12/1
f 665/1/1 666/2/1 667/3/1 668/4/1
f 669/13/1 670/14/1 671/15/1 672/16/1
f 673/1/1 674/2/1 675/3/1 676/4/1
f 677/9/1 678/10/1 679/11/1 680/12/1
f 681/13/1 682/14/1 683/15/1 684/16/1
f 685/5/1 686/6/1 687/7/1 688/8/1
f 689/33/1 690/34/1 691/35/1 692/36/1
f 693/1/1 694/2/1 695/3/1 696/4/1
f 697/13/1 698/14/1 699/15/1 700/16/1
f 701/5/1 702/6/1 703/7/1 704/8/1
f 705/13/1 706/14/1 707/15/1 708/16/1
f 709/33/1 710/34/1 711/35/1 712/36/1
f 713/5/1 714/6/1 715/7/1 716/8/1
f 717/9/1 718/10/1 719/11/1 720/12/1
f 721/1/1 722/2/1 723/3/1 724/4/1
f 725/33/1 726/34/1 727/35/1 728/36/1
f 729/13/1 730/14/1 731/15/1 732/16/1
f 733/9/1 734/10/1 735/11/1 736/12/1
f 737/13/1 738/14/1 739/15/1 740/16/1
f 741/5/1 742/6/1 743/7/1 744/8/1
f 745/13/1 746/14/1 747/15/1 748/16/1
f 749/33/1 750/34/1 751/35/1 752/36/1
f 753/1/1 754/2/1 755/3/1 756/4/1
f 757/5/1 758/6/1 759/7/1 760/8/1
f 761/1/1 762/2/1 763/3/1 764/4/1
f 765/1/1 766/2/1 767/3/1 768/4/1
f 769/33/1 770/34/1 771/35/1 772/36/1
f 773/1/1 774/2/1 775/3/1 776/4/1
f 777/5/1 778/6/1 779/7/1 780/8/1
f 781/33/1 782/34/1 783/35/1 784/36/1
f 785/33/1 786/34/1 787/35/1 788/36/1
f 789/5/1 790/6/1 791/7/1 792/8/1
f 793/1/1 794/2/1 795/3/1 796/4/1
f 797/1/1 798/2/1 799/3/1 800/4/1
f 801/33/1 802/34/1 803/35/1 804/36/1
f 805/5/1 806/6/1 807/7/1 808/8/1
f 809/1/1 810/2/1 811/3/1 812/4/1
f 813/1/1 814/2/1 815/3/1 816/4/1
f 817/13/1 818/14/1 819/15/1 820/16/1
f 821/5/1 822/6/1 823/7/1 824/8/1
f 825/33/1 826/34/1 827/35/1 828/36/1
f 829/5/1 830/6/1 831/7/1 832/8/1
f 833/33/1 834/34/1 835/35/1 836/36/1
f 837/9/1 838/10/1 839/11/1 840/12/1
f 841/5/1 842/6/1 843/7/1 844/8/1
f 845/1/1 846/2/1 847/3/1 848/4/1
f 849/1/1 850/2/1 851/3/1 852/4/1
f 853/1/1 854/2/1 855/3/1 856/4/1
f 857/9/1 858/10/1 859/11/1 860/12/1
f 861/9/1 862/10/1 863/11/1 864/12/1
f 865/5/1 866/6/1 867/7/1 868/8/1
f 869/33/1 870/34/1 871/35/1 872/36/1
f 873/33/1 874/34/1 875/35/1 876/36/1
f 877/1/1 878/2/1 879/3/1 880/4/1
f 881/9/1 882/10/1 883/11/1 884/12/1

