# Tiled2Unity generated file. Do not modify by hand.
# Wavefront file for 'start_to_dungeon_mesh_0003.obj'

# Vertices (Count = 1000)
v -224 -16 0
v -240 -16 0
v -240 0 0
v -224 0 0
v -240 -16 0
v -256 -16 0
v -256 0 0
v -240 0 0
v -256 -16 0
v -272 -16 0
v -272 0 0
v -256 0 0
v -272 -16 0
v -288 -16 0
v -288 0 0
v -272 0 0
v -288 -16 0
v -304 -16 0
v -304 0 0
v -288 0 0
v -304 -16 0
v -320 -16 0
v -320 0 0
v -304 0 0
v -320 -16 0
v -336 -16 0
v -336 0 0
v -320 0 0
v -336 -16 0
v -352 -16 0
v -352 0 0
v -336 0 0
v -352 -16 0
v -368 -16 0
v -368 0 0
v -352 0 0
v -368 -16 0
v -384 -16 0
v -384 0 0
v -368 0 0
v -384 -16 0
v -400 -16 0
v -400 0 0
v -384 0 0
v -400 -16 0
v -416 -16 0
v -416 0 0
v -400 0 0
v -416 -16 0
v -432 -16 0
v -432 0 0
v -416 0 0
v -432 -16 0
v -448 -16 0
v -448 0 0
v -432 0 0
v -448 -16 0
v -464 -16 0
v -464 0 0
v -448 0 0
v -464 -16 0
v -480 -16 0
v -480 0 0
v -464 0 0
v -480 -16 0
v -496 -16 0
v -496 0 0
v -480 0 0
v -1328 -16 0
v -1344 -16 0
v -1344 0 0
v -1328 0 0
v -1344 -16 0
v -1360 -16 0
v -1360 0 0
v -1344 0 0
v -1360 -16 0
v -1376 -16 0
v -1376 0 0
v -1360 0 0
v -1376 -16 0
v -1392 -16 0
v -1392 0 0
v -1376 0 0
v -1392 -16 0
v -1408 -16 0
v -1408 0 0
v -1392 0 0
v -1408 -16 0
v -1424 -16 0
v -1424 0 0
v -1408 0 0
v -1424 -16 0
v -1440 -16 0
v -1440 0 0
v -1424 0 0
v -1440 -16 0
v -1456 -16 0
v -1456 0 0
v -1440 0 0
v -1456 -16 0
v -1472 -16 0
v -1472 0 0
v -1456 0 0
v -1472 -16 0
v -1488 -16 0
v -1488 0 0
v -1472 0 0
v -1488 -16 0
v -1504 -16 0
v -1504 0 0
v -1488 0 0
v -1504 -16 0
v -1520 -16 0
v -1520 0 0
v -1504 0 0
v -1520 -16 0
v -1536 -16 0
v -1536 0 0
v -1520 0 0
v -1536 -16 0
v -1552 -16 0
v -1552 0 0
v -1536 0 0
v -1552 -16 0
v -1568 -16 0
v -1568 0 0
v -1552 0 0
v -1568 -16 0
v -1584 -16 0
v -1584 0 0
v -1568 0 0
v -1584 -16 0
v -1600 -16 0
v -1600 0 0
v -1584 0 0
v -224 -32 0
v -240 -32 0
v -240 -16 0
v -224 -16 0
v -240 -32 0
v -256 -32 0
v -256 -16 0
v -240 -16 0
v -256 -32 0
v -272 -32 0
v -272 -16 0
v -256 -16 0
v -272 -32 0
v -288 -32 0
v -288 -16 0
v -272 -16 0
v -288 -32 0
v -304 -32 0
v -304 -16 0
v -288 -16 0
v -304 -32 0
v -320 -32 0
v -320 -16 0
v -304 -16 0
v -320 -32 0
v -336 -32 0
v -336 -16 0
v -320 -16 0
v -336 -32 0
v -352 -32 0
v -352 -16 0
v -336 -16 0
v -352 -32 0
v -368 -32 0
v -368 -16 0
v -352 -16 0
v -368 -32 0
v -384 -32 0
v -384 -16 0
v -368 -16 0
v -384 -32 0
v -400 -32 0
v -400 -16 0
v -384 -16 0
v -400 -32 0
v -416 -32 0
v -416 -16 0
v -400 -16 0
v -416 -32 0
v -432 -32 0
v -432 -16 0
v -416 -16 0
v -432 -32 0
v -448 -32 0
v -448 -16 0
v -432 -16 0
v -448 -32 0
v -464 -32 0
v -464 -16 0
v -448 -16 0
v -464 -32 0
v -480 -32 0
v -480 -16 0
v -464 -16 0
v -480 -32 0
v -496 -32 0
v -496 -16 0
v -480 -16 0
v -1328 -32 0
v -1344 -32 0
v -1344 -16 0
v -1328 -16 0
v -1344 -32 0
v -1360 -32 0
v -1360 -16 0
v -1344 -16 0
v -1360 -32 0
v -1376 -32 0
v -1376 -16 0
v -1360 -16 0
v -1376 -32 0
v -1392 -32 0
v -1392 -16 0
v -1376 -16 0
v -1392 -32 0
v -1408 -32 0
v -1408 -16 0
v -1392 -16 0
v -1408 -32 0
v -1424 -32 0
v -1424 -16 0
v -1408 -16 0
v -1424 -32 0
v -1440 -32 0
v -1440 -16 0
v -1424 -16 0
v -1440 -32 0
v -1456 -32 0
v -1456 -16 0
v -1440 -16 0
v -1456 -32 0
v -1472 -32 0
v -1472 -16 0
v -1456 -16 0
v -1472 -32 0
v -1488 -32 0
v -1488 -16 0
v -1472 -16 0
v -1488 -32 0
v -1504 -32 0
v -1504 -16 0
v -1488 -16 0
v -1504 -32 0
v -1520 -32 0
v -1520 -16 0
v -1504 -16 0
v -1520 -32 0
v -1536 -32 0
v -1536 -16 0
v -1520 -16 0
v -1536 -32 0
v -1552 -32 0
v -1552 -16 0
v -1536 -16 0
v -1552 -32 0
v -1568 -32 0
v -1568 -16 0
v -1552 -16 0
v -1568 -32 0
v -1584 -32 0
v -1584 -16 0
v -1568 -16 0
v -1584 -32 0
v -1600 -32 0
v -1600 -16 0
v -1584 -16 0
v -224 -48 0
v -240 -48 0
v -240 -32 0
v -224 -32 0
v -240 -48 0
v -256 -48 0
v -256 -32 0
v -240 -32 0
v -256 -48 0
v -272 -48 0
v -272 -32 0
v -256 -32 0
v -272 -48 0
v -288 -48 0
v -288 -32 0
v -272 -32 0
v -288 -48 0
v -304 -48 0
v -304 -32 0
v -288 -32 0
v -304 -48 0
v -320 -48 0
v -320 -32 0
v -304 -32 0
v -320 -48 0
v -336 -48 0
v -336 -32 0
v -320 -32 0
v -336 -48 0
v -352 -48 0
v -352 -32 0
v -336 -32 0
v -352 -48 0
v -368 -48 0
v -368 -32 0
v -352 -32 0
v -368 -48 0
v -384 -48 0
v -384 -32 0
v -368 -32 0
v -384 -48 0
v -400 -48 0
v -400 -32 0
v -384 -32 0
v -400 -48 0
v -416 -48 0
v -416 -32 0
v -400 -32 0
v -416 -48 0
v -432 -48 0
v -432 -32 0
v -416 -32 0
v -432 -48 0
v -448 -48 0
v -448 -32 0
v -432 -32 0
v -448 -48 0
v -464 -48 0
v -464 -32 0
v -448 -32 0
v -464 -48 0
v -480 -48 0
v -480 -32 0
v -464 -32 0
v -480 -48 0
v -496 -48 0
v -496 -32 0
v -480 -32 0
v -1328 -48 0
v -1344 -48 0
v -1344 -32 0
v -1328 -32 0
v -1344 -48 0
v -1360 -48 0
v -1360 -32 0
v -1344 -32 0
v -1360 -48 0
v -1376 -48 0
v -1376 -32 0
v -1360 -32 0
v -1376 -48 0
v -1392 -48 0
v -1392 -32 0
v -1376 -32 0
v -1392 -48 0
v -1408 -48 0
v -1408 -32 0
v -1392 -32 0
v -1408 -48 0
v -1424 -48 0
v -1424 -32 0
v -1408 -32 0
v -1424 -48 0
v -1440 -48 0
v -1440 -32 0
v -1424 -32 0
v -1440 -48 0
v -1456 -48 0
v -1456 -32 0
v -1440 -32 0
v -1456 -48 0
v -1472 -48 0
v -1472 -32 0
v -1456 -32 0
v -1472 -48 0
v -1488 -48 0
v -1488 -32 0
v -1472 -32 0
v -1488 -48 0
v -1504 -48 0
v -1504 -32 0
v -1488 -32 0
v -1504 -48 0
v -1520 -48 0
v -1520 -32 0
v -1504 -32 0
v -1520 -48 0
v -1536 -48 0
v -1536 -32 0
v -1520 -32 0
v -1536 -48 0
v -1552 -48 0
v -1552 -32 0
v -1536 -32 0
v -1552 -48 0
v -1568 -48 0
v -1568 -32 0
v -1552 -32 0
v -1568 -48 0
v -1584 -48 0
v -1584 -32 0
v -1568 -32 0
v -1584 -48 0
v -1600 -48 0
v -1600 -32 0
v -1584 -32 0
v -224 -64 0
v -240 -64 0
v -240 -48 0
v -224 -48 0
v -240 -64 0
v -256 -64 0
v -256 -48 0
v -240 -48 0
v -256 -64 0
v -272 -64 0
v -272 -48 0
v -256 -48 0
v -272 -64 0
v -288 -64 0
v -288 -48 0
v -272 -48 0
v -288 -64 0
v -304 -64 0
v -304 -48 0
v -288 -48 0
v -304 -64 0
v -320 -64 0
v -320 -48 0
v -304 -48 0
v -320 -64 0
v -336 -64 0
v -336 -48 0
v -320 -48 0
v -336 -64 0
v -352 -64 0
v -352 -48 0
v -336 -48 0
v -352 -64 0
v -368 -64 0
v -368 -48 0
v -352 -48 0
v -368 -64 0
v -384 -64 0
v -384 -48 0
v -368 -48 0
v -384 -64 0
v -400 -64 0
v -400 -48 0
v -384 -48 0
v -400 -64 0
v -416 -64 0
v -416 -48 0
v -400 -48 0
v -416 -64 0
v -432 -64 0
v -432 -48 0
v -416 -48 0
v -432 -64 0
v -448 -64 0
v -448 -48 0
v -432 -48 0
v -448 -64 0
v -464 -64 0
v -464 -48 0
v -448 -48 0
v -464 -64 0
v -480 -64 0
v -480 -48 0
v -464 -48 0
v -480 -64 0
v -496 -64 0
v -496 -48 0
v -480 -48 0
v -1328 -64 0
v -1344 -64 0
v -1344 -48 0
v -1328 -48 0
v -1344 -64 0
v -1360 -64 0
v -1360 -48 0
v -1344 -48 0
v -1360 -64 0
v -1376 -64 0
v -1376 -48 0
v -1360 -48 0
v -1376 -64 0
v -1392 -64 0
v -1392 -48 0
v -1376 -48 0
v -1392 -64 0
v -1408 -64 0
v -1408 -48 0
v -1392 -48 0
v -1408 -64 0
v -1424 -64 0
v -1424 -48 0
v -1408 -48 0
v -1424 -64 0
v -1440 -64 0
v -1440 -48 0
v -1424 -48 0
v -1440 -64 0
v -1456 -64 0
v -1456 -48 0
v -1440 -48 0
v -1456 -64 0
v -1472 -64 0
v -1472 -48 0
v -1456 -48 0
v -1472 -64 0
v -1488 -64 0
v -1488 -48 0
v -1472 -48 0
v -1488 -64 0
v -1504 -64 0
v -1504 -48 0
v -1488 -48 0
v -1504 -64 0
v -1520 -64 0
v -1520 -48 0
v -1504 -48 0
v -1520 -64 0
v -1536 -64 0
v -1536 -48 0
v -1520 -48 0
v -1536 -64 0
v -1552 -64 0
v -1552 -48 0
v -1536 -48 0
v -1552 -64 0
v -1568 -64 0
v -1568 -48 0
v -1552 -48 0
v -1568 -64 0
v -1584 -64 0
v -1584 -48 0
v -1568 -48 0
v -1584 -64 0
v -1600 -64 0
v -1600 -48 0
v -1584 -48 0
v -224 -80 0
v -240 -80 0
v -240 -64 0
v -224 -64 0
v -240 -80 0
v -256 -80 0
v -256 -64 0
v -240 -64 0
v -256 -80 0
v -272 -80 0
v -272 -64 0
v -256 -64 0
v -272 -80 0
v -288 -80 0
v -288 -64 0
v -272 -64 0
v -288 -80 0
v -304 -80 0
v -304 -64 0
v -288 -64 0
v -304 -80 0
v -320 -80 0
v -320 -64 0
v -304 -64 0
v -320 -80 0
v -336 -80 0
v -336 -64 0
v -320 -64 0
v -336 -80 0
v -352 -80 0
v -352 -64 0
v -336 -64 0
v -352 -80 0
v -368 -80 0
v -368 -64 0
v -352 -64 0
v -368 -80 0
v -384 -80 0
v -384 -64 0
v -368 -64 0
v -384 -80 0
v -400 -80 0
v -400 -64 0
v -384 -64 0
v -400 -80 0
v -416 -80 0
v -416 -64 0
v -400 -64 0
v -416 -80 0
v -432 -80 0
v -432 -64 0
v -416 -64 0
v -432 -80 0
v -448 -80 0
v -448 -64 0
v -432 -64 0
v -448 -80 0
v -464 -80 0
v -464 -64 0
v -448 -64 0
v -464 -80 0
v -480 -80 0
v -480 -64 0
v -464 -64 0
v -480 -80 0
v -496 -80 0
v -496 -64 0
v -480 -64 0
v -1328 -80 0
v -1344 -80 0
v -1344 -64 0
v -1328 -64 0
v -1344 -80 0
v -1360 -80 0
v -1360 -64 0
v -1344 -64 0
v -1360 -80 0
v -1376 -80 0
v -1376 -64 0
v -1360 -64 0
v -1376 -80 0
v -1392 -80 0
v -1392 -64 0
v -1376 -64 0
v -1392 -80 0
v -1408 -80 0
v -1408 -64 0
v -1392 -64 0
v -1408 -80 0
v -1424 -80 0
v -1424 -64 0
v -1408 -64 0
v -1424 -80 0
v -1440 -80 0
v -1440 -64 0
v -1424 -64 0
v -1440 -80 0
v -1456 -80 0
v -1456 -64 0
v -1440 -64 0
v -1456 -80 0
v -1472 -80 0
v -1472 -64 0
v -1456 -64 0
v -1472 -80 0
v -1488 -80 0
v -1488 -64 0
v -1472 -64 0
v -1488 -80 0
v -1504 -80 0
v -1504 -64 0
v -1488 -64 0
v -1504 -80 0
v -1520 -80 0
v -1520 -64 0
v -1504 -64 0
v -1520 -80 0
v -1536 -80 0
v -1536 -64 0
v -1520 -64 0
v -1536 -80 0
v -1552 -80 0
v -1552 -64 0
v -1536 -64 0
v -1552 -80 0
v -1568 -80 0
v -1568 -64 0
v -1552 -64 0
v -1568 -80 0
v -1584 -80 0
v -1584 -64 0
v -1568 -64 0
v -1584 -80 0
v -1600 -80 0
v -1600 -64 0
v -1584 -64 0
v -224 -96 0
v -240 -96 0
v -240 -80 0
v -224 -80 0
v -240 -96 0
v -256 -96 0
v -256 -80 0
v -240 -80 0
v -256 -96 0
v -272 -96 0
v -272 -80 0
v -256 -80 0
v -272 -96 0
v -288 -96 0
v -288 -80 0
v -272 -80 0
v -288 -96 0
v -304 -96 0
v -304 -80 0
v -288 -80 0
v -304 -96 0
v -320 -96 0
v -320 -80 0
v -304 -80 0
v -320 -96 0
v -336 -96 0
v -336 -80 0
v -320 -80 0
v -336 -96 0
v -352 -96 0
v -352 -80 0
v -336 -80 0
v -352 -96 0
v -368 -96 0
v -368 -80 0
v -352 -80 0
v -368 -96 0
v -384 -96 0
v -384 -80 0
v -368 -80 0
v -384 -96 0
v -400 -96 0
v -400 -80 0
v -384 -80 0
v -400 -96 0
v -416 -96 0
v -416 -80 0
v -400 -80 0
v -416 -96 0
v -432 -96 0
v -432 -80 0
v -416 -80 0
v -432 -96 0
v -448 -96 0
v -448 -80 0
v -432 -80 0
v -448 -96 0
v -464 -96 0
v -464 -80 0
v -448 -80 0
v -464 -96 0
v -480 -96 0
v -480 -80 0
v -464 -80 0
v -480 -96 0
v -496 -96 0
v -496 -80 0
v -480 -80 0
v -1328 -96 0
v -1344 -96 0
v -1344 -80 0
v -1328 -80 0
v -1344 -96 0
v -1360 -96 0
v -1360 -80 0
v -1344 -80 0
v -1360 -96 0
v -1376 -96 0
v -1376 -80 0
v -1360 -80 0
v -1376 -96 0
v -1392 -96 0
v -1392 -80 0
v -1376 -80 0
v -1392 -96 0
v -1408 -96 0
v -1408 -80 0
v -1392 -80 0
v -1408 -96 0
v -1424 -96 0
v -1424 -80 0
v -1408 -80 0
v -1424 -96 0
v -1440 -96 0
v -1440 -80 0
v -1424 -80 0
v -1440 -96 0
v -1456 -96 0
v -1456 -80 0
v -1440 -80 0
v -1456 -96 0
v -1472 -96 0
v -1472 -80 0
v -1456 -80 0
v -1472 -96 0
v -1488 -96 0
v -1488 -80 0
v -1472 -80 0
v -1488 -96 0
v -1504 -96 0
v -1504 -80 0
v -1488 -80 0
v -1504 -96 0
v -1520 -96 0
v -1520 -80 0
v -1504 -80 0
v -1520 -96 0
v -1536 -96 0
v -1536 -80 0
v -1520 -80 0
v -1536 -96 0
v -1552 -96 0
v -1552 -80 0
v -1536 -80 0
v -1552 -96 0
v -1568 -96 0
v -1568 -80 0
v -1552 -80 0
v -1568 -96 0
v -1584 -96 0
v -1584 -80 0
v -1568 -80 0
v -1584 -96 0
v -1600 -96 0
v -1600 -80 0
v -1584 -80 0
v -224 -112 0
v -240 -112 0
v -240 -96 0
v -224 -96 0
v -240 -112 0
v -256 -112 0
v -256 -96 0
v -240 -96 0
v -256 -112 0
v -272 -112 0
v -272 -96 0
v -256 -96 0
v -272 -112 0
v -288 -112 0
v -288 -96 0
v -272 -96 0
v -288 -112 0
v -304 -112 0
v -304 -96 0
v -288 -96 0
v -304 -112 0
v -320 -112 0
v -320 -96 0
v -304 -96 0
v -320 -112 0
v -336 -112 0
v -336 -96 0
v -320 -96 0
v -336 -112 0
v -352 -112 0
v -352 -96 0
v -336 -96 0
v -352 -112 0
v -368 -112 0
v -368 -96 0
v -352 -96 0
v -368 -112 0
v -384 -112 0
v -384 -96 0
v -368 -96 0
v -384 -112 0
v -400 -112 0
v -400 -96 0
v -384 -96 0
v -400 -112 0
v -416 -112 0
v -416 -96 0
v -400 -96 0
v -416 -112 0
v -432 -112 0
v -432 -96 0
v -416 -96 0
v -432 -112 0
v -448 -112 0
v -448 -96 0
v -432 -96 0
v -448 -112 0
v -464 -112 0
v -464 -96 0
v -448 -96 0
v -464 -112 0
v -480 -112 0
v -480 -96 0
v -464 -96 0
v -480 -112 0
v -496 -112 0
v -496 -96 0
v -480 -96 0
v -1328 -112 0
v -1344 -112 0
v -1344 -96 0
v -1328 -96 0
v -1344 -112 0
v -1360 -112 0
v -1360 -96 0
v -1344 -96 0
v -1360 -112 0
v -1376 -112 0
v -1376 -96 0
v -1360 -96 0
v -1376 -112 0
v -1392 -112 0
v -1392 -96 0
v -1376 -96 0
v -1392 -112 0
v -1408 -112 0
v -1408 -96 0
v -1392 -96 0
v -1408 -112 0
v -1424 -112 0
v -1424 -96 0
v -1408 -96 0
v -1424 -112 0
v -1440 -112 0
v -1440 -96 0
v -1424 -96 0
v -1440 -112 0
v -1456 -112 0
v -1456 -96 0
v -1440 -96 0
v -1456 -112 0
v -1472 -112 0
v -1472 -96 0
v -1456 -96 0
v -1472 -112 0
v -1488 -112 0
v -1488 -96 0
v -1472 -96 0
v -1488 -112 0
v -1504 -112 0
v -1504 -96 0
v -1488 -96 0
v -1504 -112 0
v -1520 -112 0
v -1520 -96 0
v -1504 -96 0
v -1520 -112 0
v -1536 -112 0
v -1536 -96 0
v -1520 -96 0
v -1536 -112 0
v -1552 -112 0
v -1552 -96 0
v -1536 -96 0
v -1552 -112 0
v -1568 -112 0
v -1568 -96 0
v -1552 -96 0
v -1568 -112 0
v -1584 -112 0
v -1584 -96 0
v -1568 -96 0
v -1584 -112 0
v -1600 -112 0
v -1600 -96 0
v -1584 -96 0
v -336 -144 0
v -352 -144 0
v -352 -128 0
v -336 -128 0
v -416 -192 0
v -432 -192 0
v -432 -176 0
v -416 -176 0
v -352 -224 0
v -368 -224 0
v -368 -208 0
v -352 -208 0
v -432 -288 0
v -448 -288 0
v -448 -272 0
v -432 -272 0
v -416 -368 0
v -432 -368 0
v -432 -352 0
v -416 -352 0
v -336 -400 0
v -352 -400 0
v -352 -384 0
v -336 -384 0
v -352 -448 0
v -368 -448 0
v -368 -432 0
v -352 -432 0
v -432 -480 0
v -448 -480 0
v -448 -464 0
v -432 -464 0
v -416 -560 0
v -432 -560 0
v -432 -544 0
v -416 -544 0
v -336 -592 0
v -352 -592 0
v -352 -576 0
v -336 -576 0
v -432 -608 0
v -448 -608 0
v -448 -592 0
v -432 -592 0
v -352 -656 0
v -368 -656 0
v -368 -640 0
v -352 -640 0

# Texture cooridinates (Count = 56)
vt 0.5092975 0.5494297
vt 0.5258265 0.5494297
vt 0.5258265 0.5798479
vt 0.5092975 0.5798479
vt 0.5268595 0.5494297
vt 0.5433884 0.5494297
vt 0.5433884 0.5798479
vt 0.5268595 0.5798479
vt 0.4917355 0.5817491
vt 0.5082645 0.5817491
vt 0.5082645 0.6121673
vt 0.4917355 0.6121673
vt 0.5444215 0.5494297
vt 0.5609504 0.5494297
vt 0.5609504 0.5798479
vt 0.5444215 0.5798479
vt 0.5795454 0.5494297
vt 0.5960744 0.5494297
vt 0.5960744 0.5798479
vt 0.5795454 0.5798479
vt 0.5444215 0.4847909
vt 0.5609504 0.4847909
vt 0.5609504 0.5152091
vt 0.5444215 0.5152091
vt 0.5619835 0.4847909
vt 0.5785124 0.4847909
vt 0.5785124 0.5152091
vt 0.5619835 0.5152091
vt 0.5795454 0.4847909
vt 0.5960744 0.4847909
vt 0.5960744 0.5152091
vt 0.5795454 0.5152091
vt 0.4917355 0.4847909
vt 0.5082645 0.4847909
vt 0.5082645 0.5152091
vt 0.4917355 0.5152091
vt 0.4741735 0.4847909
vt 0.4907025 0.4847909
vt 0.4907025 0.5152091
vt 0.4741735 0.5152091
vt 0.5268595 0.4847909
vt 0.5433884 0.4847909
vt 0.5433884 0.5152091
vt 0.5268595 0.5152091
vt 0.3161157 0.743346
vt 0.3326446 0.743346
vt 0.3326446 0.7737643
vt 0.3161157 0.7737643
vt 0.5092975 0.6787072
vt 0.5258265 0.6787072
vt 0.5258265 0.7091255
vt 0.5092975 0.7091255
vt 0.5444215 0.6787072
vt 0.5609504 0.6787072
vt 0.5609504 0.7091255
vt 0.5444215 0.7091255

# Normal
vn 0 0 -1

# Mesh description
g start_to_dungeon_mesh_0003

# Faces
f 1/1/1 2/2/1 3/3/1 4/4/1
f 5/1/1 6/2/1 7/3/1 8/4/1
f 9/1/1 10/2/1 11/3/1 12/4/1
f 13/5/1 14/6/1 15/7/1 16/8/1
f 17/9/1 18/10/1 19/11/1 20/12/1
f 21/9/1 22/10/1 23/11/1 24/12/1
f 25/9/1 26/10/1 27/11/1 28/12/1
f 29/9/1 30/10/1 31/11/1 32/12/1
f 33/9/1 34/10/1 35/11/1 36/12/1
f 37/9/1 38/10/1 39/11/1 40/12/1
f 41/9/1 42/10/1 43/11/1 44/12/1
f 45/9/1 46/10/1 47/11/1 48/12/1
f 49/9/1 50/10/1 51/11/1 52/12/1
f 53/13/1 54/14/1 55/15/1 56/16/1
f 57/1/1 58/2/1 59/3/1 60/4/1
f 61/1/1 62/2/1 63/3/1 64/4/1
f 65/1/1 66/2/1 67/3/1 68/4/1
f 69/1/1 70/2/1 71/3/1 72/4/1
f 73/1/1 74/2/1 75/3/1 76/4/1
f 77/1/1 78/2/1 79/3/1 80/4/1
f 81/5/1 82/6/1 83/7/1 84/8/1
f 85/9/1 86/10/1 87/11/1 88/12/1
f 89/9/1 90/10/1 91/11/1 92/12/1
f 93/9/1 94/10/1 95/11/1 96/12/1
f 97/9/1 98/10/1 99/11/1 100/12/1
f 101/9/1 102/10/1 103/11/1 104/12/1
f 105/9/1 106/10/1 107/11/1 108/12/1
f 109/9/1 110/10/1 111/11/1 112/12/1
f 113/9/1 114/10/1 115/11/1 116/12/1
f 117/9/1 118/10/1 119/11/1 120/12/1
f 121/13/1 122/14/1 123/15/1 124/16/1
f 125/1/1 126/2/1 127/3/1 128/4/1
f 129/1/1 130/2/1 131/3/1 132/4/1
f 133/1/1 134/2/1 135/3/1 136/4/1
f 137/1/1 138/2/1 139/3/1 140/4/1
f 141/1/1 142/2/1 143/3/1 144/4/1
f 145/5/1 146/6/1 147/7/1 148/8/1
f 149/9/1 150/10/1 151/11/1 152/12/1
f 153/9/1 154/10/1 155/11/1 156/12/1
f 157/9/1 158/10/1 159/11/1 160/12/1
f 161/9/1 162/10/1 163/11/1 164/12/1
f 165/9/1 166/10/1 167/11/1 168/12/1
f 169/9/1 170/10/1 171/11/1 172/12/1
f 173/9/1 174/10/1 175/11/1 176/12/1
f 177/9/1 178/10/1 179/11/1 180/12/1
f 181/9/1 182/10/1 183/11/1 184/12/1
f 185/9/1 186/10/1 187/11/1 188/12/1
f 189/9/1 190/10/1 191/11/1 192/12/1
f 193/13/1 194/14/1 195/15/1 196/16/1
f 197/1/1 198/2/1 199/3/1 200/4/1
f 201/1/1 202/2/1 203/3/1 204/4/1
f 205/1/1 206/2/1 207/3/1 208/4/1
f 209/1/1 210/2/1 211/3/1 212/4/1
f 213/5/1 214/6/1 215/7/1 216/8/1
f 217/9/1 218/10/1 219/11/1 220/12/1
f 221/9/1 222/10/1 223/11/1 224/12/1
f 225/9/1 226/10/1 227/11/1 228/12/1
f 229/9/1 230/10/1 231/11/1 232/12/1
f 233/9/1 234/10/1 235/11/1 236/12/1
f 237/9/1 238/10/1 239/11/1 240/12/1
f 241/9/1 242/10/1 243/11/1 244/12/1
f 245/9/1 246/10/1 247/11/1 248/12/1
f 249/9/1 250/10/1 251/11/1 252/12/1
f 253/9/1 254/10/1 255/11/1 256/12/1
f 257/9/1 258/10/1 259/11/1 260/12/1
f 261/13/1 262/14/1 263/15/1 264/16/1
f 265/1/1 266/2/1 267/3/1 268/4/1
f 269/1/1 270/2/1 271/3/1 272/4/1
f 273/1/1 274/2/1 275/3/1 276/4/1
f 277/5/1 278/6/1 279/7/1 280/8/1
f 281/9/1 282/10/1 283/11/1 284/12/1
f 285/9/1 286/10/1 287/11/1 288/12/1
f 289/9/1 290/10/1 291/11/1 292/12/1
f 293/9/1 294/10/1 295/11/1 296/12/1
f 297/9/1 298/10/1 299/11/1 300/12/1
f 301/9/1 302/10/1 303/11/1 304/12/1
f 305/9/1 306/10/1 307/11/1 308/12/1
f 309/9/1 310/10/1 311/11/1 312/12/1
f 313/9/1 314/10/1 315/11/1 316/12/1
f 317/9/1 318/10/1 319/11/1 320/12/1
f 321/9/1 322/10/1 323/11/1 324/12/1
f 325/9/1 326/10/1 327/11/1 328/12/1
f 329/9/1 330/10/1 331/11/1 332/12/1
f 333/13/1 334/14/1 335/15/1 336/16/1
f 337/1/1 338/2/1 339/3/1 340/4/1
f 341/1/1 342/2/1 343/3/1 344/4/1
f 345/5/1 346/6/1 347/7/1 348/8/1
f 349/9/1 350/10/1 351/11/1 352/12/1
f 353/9/1 354/10/1 355/11/1 356/12/1
f 357/9/1 358/10/1 359/11/1 360/12/1
f 361/9/1 362/10/1 363/11/1 364/12/1
f 365/9/1 366/10/1 367/11/1 368/12/1
f 369/9/1 370/10/1 371/11/1 372/12/1
f 373/9/1 374/10/1 375/11/1 376/12/1
f 377/9/1 378/10/1 379/11/1 380/12/1
f 381/9/1 382/10/1 383/11/1 384/12/1
f 385/9/1 386/10/1 387/11/1 388/12/1
f 389/9/1 390/10/1 391/11/1 392/12/1
f 393/9/1 394/10/1 395/11/1 396/12/1
f 397/9/1 398/10/1 399/11/1 400/12/1
f 401/13/1 402/14/1 403/15/1 404/16/1
f 405/1/1 406/2/1 407/3/1 408/4/1
f 409/5/1 410/6/1 411/7/1 412/8/1
f 413/9/1 414/10/1 415/11/1 416/12/1
f 417/9/1 418/10/1 419/11/1 420/12/1
f 421/9/1 422/10/1 423/11/1 424/12/1
f 425/9/1 426/10/1 427/11/1 428/12/1
f 429/9/1 430/10/1 431/11/1 432/12/1
f 433/9/1 434/10/1 435/11/1 436/12/1
f 437/9/1 438/10/1 439/11/1 440/12/1
f 441/9/1 442/10/1 443/11/1 444/12/1
f 445/9/1 446/10/1 447/11/1 448/12/1
f 449/17/1 450/18/1 451/19/1 452/20/1
f 453/9/1 454/10/1 455/11/1 456/12/1
f 457/9/1 458/10/1 459/11/1 460/12/1
f 461/9/1 462/10/1 463/11/1 464/12/1
f 465/9/1 466/10/1 467/11/1 468/12/1
f 469/9/1 470/10/1 471/11/1 472/12/1
f 473/13/1 474/14/1 475/15/1 476/16/1
f 477/5/1 478/6/1 479/7/1 480/8/1
f 481/9/1 482/10/1 483/11/1 484/12/1
f 485/9/1 486/10/1 487/11/1 488/12/1
f 489/9/1 490/10/1 491/11/1 492/12/1
f 493/9/1 494/10/1 495/11/1 496/12/1
f 497/9/1 498/10/1 499/11/1 500/12/1
f 501/9/1 502/10/1 503/11/1 504/12/1
f 505/9/1 506/10/1 507/11/1 508/12/1
f 509/9/1 510/10/1 511/11/1 512/12/1
f 513/9/1 514/10/1 515/11/1 516/12/1
f 517/17/1 518/18/1 519/19/1 520/20/1
f 521/9/1 522/10/1 523/11/1 524/12/1
f 525/9/1 526/10/1 527/11/1 528/12/1
f 529/9/1 530/10/1 531/11/1 532/12/1
f 533/9/1 534/10/1 535/11/1 536/12/1
f 537/9/1 538/10/1 539/11/1 540/12/1
f 541/13/1 542/14/1 543/15/1 544/16/1
f 545/21/1 546/22/1 547/23/1 548/24/1
f 549/25/1 550/26/1 551/27/1 552/28/1
f 553/25/1 554/26/1 555/27/1 556/28/1
f 557/25/1 558/26/1 559/27/1 560/28/1
f 561/25/1 562/26/1 563/27/1 564/28/1
f 565/25/1 566/26/1 567/27/1 568/28/1
f 569/25/1 570/26/1 571/27/1 572/28/1
f 573/25/1 574/26/1 575/27/1 576/28/1
f 577/25/1 578/26/1 579/27/1 580/28/1
f 581/29/1 582/30/1 583/31/1 584/32/1
f 585/25/1 586/26/1 587/27/1 588/28/1
f 589/21/1 590/22/1 591/23/1 592/24/1
f 593/25/1 594/26/1 595/27/1 596/28/1
f 597/25/1 598/26/1 599/27/1 600/28/1
f 601/25/1 602/26/1 603/27/1 604/28/1
f 605/25/1 606/26/1 607/27/1 608/28/1
f 609/29/1 610/30/1 611/31/1 612/32/1
f 613/21/1 614/22/1 615/23/1 616/24/1
f 617/25/1 618/26/1 619/27/1 620/28/1
f 621/25/1 622/26/1 623/27/1 624/28/1
f 625/25/1 626/26/1 627/27/1 628/28/1
f 629/25/1 630/26/1 631/27/1 632/28/1
f 633/25/1 634/26/1 635/27/1 636/28/1
f 637/25/1 638/26/1 639/27/1 640/28/1
f 641/25/1 642/26/1 643/27/1 644/28/1
f 645/25/1 646/26/1 647/27/1 648/28/1
f 649/29/1 650/30/1 651/31/1 652/32/1
f 653/25/1 654/26/1 655/27/1 656/28/1
f 657/21/1 658/22/1 659/23/1 660/24/1
f 661/25/1 662/26/1 663/27/1 664/28/1
f 665/25/1 666/26/1 667/27/1 668/28/1
f 669/25/1 670/26/1 671/27/1 672/28/1
f 673/25/1 674/26/1 675/27/1 676/28/1
f 677/29/1 678/30/1 679/31/1 680/32/1
f 681/21/1 682/22/1 683/23/1 684/24/1
f 685/25/1 686/26/1 687/27/1 688/28/1
f 689/25/1 690/26/1 691/27/1 692/28/1
f 693/25/1 694/26/1 695/27/1 696/28/1
f 697/25/1 698/26/1 699/27/1 700/28/1
f 701/25/1 702/26/1 703/27/1 704/28/1
f 705/25/1 706/26/1 707/27/1 708/28/1
f 709/25/1 710/26/1 711/27/1 712/28/1
f 713/25/1 714/26/1 715/27/1 716/28/1
f 717/29/1 718/30/1 719/31/1 720/32/1
f 721/25/1 722/26/1 723/27/1 724/28/1
f 725/21/1 726/22/1 727/23/1 728/24/1
f 729/25/1 730/26/1 731/27/1 732/28/1
f 733/25/1 734/26/1 735/27/1 736/28/1
f 737/25/1 738/26/1 739/27/1 740/28/1
f 741/25/1 742/26/1 743/27/1 744/28/1
f 745/29/1 746/30/1 747/31/1 748/32/1
f 749/21/1 750/22/1 751/23/1 752/24/1
f 753/25/1 754/26/1 755/27/1 756/28/1
f 757/25/1 758/26/1 759/27/1 760/28/1
f 761/25/1 762/26/1 763/27/1 764/28/1
f 765/25/1 766/26/1 767/27/1 768/28/1
f 769/25/1 770/26/1 771/27/1 772/28/1
f 773/25/1 774/26/1 775/27/1 776/28/1
f 777/25/1 778/26/1 779/27/1 780/28/1
f 781/25/1 782/26/1 783/27/1 784/28/1
f 785/29/1 786/30/1 787/31/1 788/32/1
f 789/25/1 790/26/1 791/27/1 792/28/1
f 793/21/1 794/22/1 795/23/1 796/24/1
f 797/25/1 798/26/1 799/27/1 800/28/1
f 801/25/1 802/26/1 803/27/1 804/28/1
f 805/25/1 806/26/1 807/27/1 808/28/1
f 809/25/1 810/26/1 811/27/1 812/28/1
f 813/29/1 814/30/1 815/31/1 816/32/1
f 817/33/1 818/34/1 819/35/1 820/36/1
f 821/37/1 822/38/1 823/39/1 824/40/1
f 825/37/1 826/38/1 827/39/1 828/40/1
f 829/37/1 830/38/1 831/39/1 832/40/1
f 833/37/1 834/38/1 835/39/1 836/40/1
f 837/37/1 838/38/1 839/39/1 840/40/1
f 841/37/1 842/38/1 843/39/1 844/40/1
f 845/37/1 846/38/1 847/39/1 848/40/1
f 849/37/1 850/38/1 851/39/1 852/40/1
f 853/41/1 854/42/1 855/43/1 856/44/1
f 857/25/1 858/26/1 859/27/1 860/28/1
f 861/33/1 862/34/1 863/35/1 864/36/1
f 865/37/1 866/38/1 867/39/1 868/40/1
f 869/37/1 870/38/1 871/39/1 872/40/1
f 873/37/1 874/38/1 875/39/1 876/40/1
f 877/37/1 878/38/1 879/39/1 880/40/1
f 881/41/1 882/42/1 883/43/1 884/44/1
f 885/21/1 886/22/1 887/23/1 888/24/1
f 889/25/1 890/26/1 891/27/1 892/28/1
f 893/25/1 894/26/1 895/27/1 896/28/1
f 897/25/1 898/26/1 899/27/1 900/28/1
f 901/25/1 902/26/1 903/27/1 904/28/1
f 905/25/1 906/26/1 907/27/1 908/28/1
f 909/25/1 910/26/1 911/27/1 912/28/1
f 913/25/1 914/26/1 915/27/1 916/28/1
f 917/25/1 918/26/1 919/27/1 920/28/1
f 921/29/1 922/30/1 923/31/1 924/32/1
f 925/25/1 926/26/1 927/27/1 928/28/1
f 929/21/1 930/22/1 931/23/1 932/24/1
f 933/25/1 934/26/1 935/27/1 936/28/1
f 937/25/1 938/26/1 939/27/1 940/28/1
f 941/25/1 942/26/1 943/27/1 944/28/1
f 945/25/1 946/26/1 947/27/1 948/28/1
f 949/29/1 950/30/1 951/31/1 952/32/1
f 953/45/1 954/46/1 955/47/1 956/48/1
f 957/49/1 958/50/1 959/51/1 960/52/1
f 961/53/1 962/54/1 963/55/1 964/56/1
f 965/53/1 966/54/1 967/55/1 968/56/1
f 969/53/1 970/54/1 971/55/1 972/56/1
f 973/49/1 974/50/1 975/51/1 976/52/1
f 977/53/1 978/54/1 979/55/1 980/56/1
f 981/49/1 982/50/1 983/51/1 984/52/1
f 985/49/1 986/50/1 987/51/1 988/52/1
f 989/53/1 990/54/1 991/55/1 992/56/1
f 993/53/1 994/54/1 995/55/1 996/56/1
f 997/49/1 998/50/1 999/51/1 1000/52/1

